<svg width="79" height="79" viewBox="0 0 79 79" fill="none" xmlns="http://www.w3.org/2000/svg">
<g clip-path="url(#clip0)">
<path d="M71.998 62.751H7.00208V79H71.998V62.751Z" fill="#F9BDA0"/>
<path d="M22.6065 22.3684C22.3817 21.9161 23.4312 21.0319 23.4312 21.0319L36.1365 18.4307L36.9043 36.0351L32.1582 41.5462" fill="#CE3309"/>
<path d="M56.3949 22.3684C56.6211 21.9161 55.5716 21.0319 55.5716 21.0319L42.8663 18.4307L42.0972 36.0351L46.8432 41.5462" fill="#CE3309"/>
<path d="M47.6246 31.6073H31.3756V65.4594H47.6246V31.6073Z" fill="#F9BDA0"/>
<path d="M47.6246 47.4174V31.6073H31.5408L39.7045 54.3787L47.6246 47.4174Z" fill="#EAA78C"/>
<path d="M52.1879 17.2852C52.1879 29.5126 45.9889 40.5781 39.5028 40.5781C33.0168 40.5781 26.8151 29.5126 26.8151 17.2852C26.8151 5.05786 33.0168 3.01862 39.5028 3.01862C45.9889 3.01862 52.1879 5.05786 52.1879 17.2852Z" fill="#FCCCB9"/>
<path d="M39.5029 3.01862C45.989 3.01862 52.188 5.05786 52.188 17.2852C52.188 29.5126 45.989 40.5781 39.5029 40.5781" fill="#F9BDA0"/>
<path d="M32.0067 48.4614L5.57092 56.5995L6.1938 79L38.9111 71.3183L32.0067 48.4614Z" fill="#F9BDA0"/>
<path d="M5.57092 56.5994L6.1938 79L38.9111 71.3183" fill="#FCCCB9"/>
<path d="M46.9963 48.4614L73.4307 56.5995L72.8065 79L40.0864 71.3183L46.9963 48.4614Z" fill="#F9BDA0"/>
<path d="M73.4307 56.5994L72.8065 79L40.0864 71.3183" fill="#EAA78C"/>
<path d="M36.6294 0.661105C36.6294 0.661105 40.5657 20.1423 56.4857 22.1138C56.4857 22.1138 57.0043 10.1492 52.5927 4.93323C48.1784 -0.279982 41.347 0.363207 41.347 0.363207L36.6294 0.661105Z" fill="#E5370E"/>
<path d="M45.4891 0.670586C45.4891 0.670586 48.6997 15.9338 22.5253 23.0211C22.5253 23.0211 20.5307 10.1613 25.7385 4.65159C30.9449 -0.859527 40.2813 0.0571868 40.2813 0.0571868L45.4891 0.670586Z" fill="#F95130"/>
<path d="M40.2813 0.0571899L45.4891 0.670589C45.4891 0.670589 48.6997 15.9338 22.5253 23.0211" fill="#E5370E"/>
<path d="M71.998 62.751H7.00208V79H71.998V62.751Z" fill="#6B767C"/>
<path d="M71.998 65.4592H7.00208V79H71.998V65.4592Z" fill="#071519"/>
<path d="M38.4872 79L30.3275 48.5413L5.47742 56.2528L6.19373 79H38.4872Z" fill="#E2F5F7"/>
<path d="M38.4872 79L30.3275 48.5413L5.47742 56.2528L8.90189 79H38.4872Z" fill="#CEEEF2"/>
<path d="M38.4872 79L30.3275 48.5413L5.47742 56.2528L14.3182 79H38.4872Z" fill="#C3E4EA"/>
<path d="M40.5129 79L48.6726 48.5413L73.5227 56.2528L72.8064 79H40.5129Z" fill="#C3E4EA"/>
<path d="M65.344 75.4591C65.344 75.65 64.9906 75.8044 64.5546 75.8044H55.3008C54.8648 75.8044 54.5114 75.65 54.5114 75.4591C54.5114 75.2682 54.8648 75.1138 55.3008 75.1138H64.5546C64.9906 75.1138 65.344 75.2682 65.344 75.4591Z" fill="#F8FFFF"/>
<path d="M30.3221 48.5914L23.5896 60.7375L30.2747 64.7593L29.0899 72.5573L35.7763 79H37.4689L30.3221 48.5914Z" fill="#E2F5F7"/>
<path d="M48.6781 48.5914L55.4106 60.7375L48.7241 64.7593L49.909 72.5573L43.2239 79H41.5312L48.6781 48.5914Z" fill="#E2F5F7"/>
<path d="M53.7152 65.6663C54.0456 65.6663 54.395 65.4023 54.395 65.0746V48.1513C54.395 44.5711 51.6002 41.6571 48.0186 41.6571C47.6936 41.6571 47.4851 41.9211 47.4851 42.2488C47.4851 42.5738 47.5772 42.8392 47.9022 42.8392C50.831 42.8392 53.0409 45.2224 53.0409 48.1526V65.0773C53.0409 65.4023 53.393 65.6663 53.7152 65.6663Z" fill="#4E595E"/>
<path d="M30.9125 41.6581C27.331 41.6581 24.6052 44.5721 24.6052 48.1523V59.295C25.0453 59.4467 25.5192 59.6105 25.9593 59.8204V48.1523C25.9593 45.222 28.1177 42.8388 31.0466 42.8388C31.3702 42.8388 31.4122 42.5748 31.4122 42.2485C31.4108 41.9221 31.2375 41.6581 30.9125 41.6581Z" fill="#4E595E"/>
<path d="M54.0727 67.5147C54.834 67.5147 55.4511 66.8975 55.4511 66.1362C55.4511 65.3749 54.834 64.7578 54.0727 64.7578C53.3114 64.7578 52.6942 65.3749 52.6942 66.1362C52.6942 66.8975 53.3114 67.5147 54.0727 67.5147Z" fill="#7CB1B5"/>
<path d="M58.4004 70.3501C58.4004 72.7414 56.4587 74.6818 54.0741 74.6818C51.6788 74.6818 49.7438 72.7401 49.7438 70.3501C49.7438 67.9615 51.6801 66.0211 54.0741 66.0211C56.4587 66.0211 58.4004 67.9629 58.4004 70.3501Z" fill="#37A2A5"/>
<path d="M51.0125 67.2899C52.6996 65.6014 55.443 65.6014 57.1343 67.2899C58.8241 68.9798 58.8228 71.7259 57.137 73.4117" fill="#1B8796"/>
<path d="M54.074 72.6642C55.3513 72.6642 56.3868 71.6288 56.3868 70.3515C56.3868 69.0742 55.3513 68.0387 54.074 68.0387C52.7967 68.0387 51.7612 69.0742 51.7612 70.3515C51.7612 71.6288 52.7967 72.6642 54.074 72.6642Z" fill="#37A2A5"/>
<path d="M52.4397 71.9845C51.5379 71.0854 51.5379 69.6175 52.4397 68.7171C53.3415 67.8139 54.8093 67.8153 55.7111 68.7157" fill="#1B8796"/>
<path d="M28.6675 77.5173L27.2281 62.4612C27.2281 61.1992 26.0717 60.1742 24.8124 60.1742C23.5477 60.1742 22.1245 61.2006 22.1245 62.4612L20.543 77.5173V62.4612C20.543 60.5493 22.6919 58.9921 24.6052 58.9921C26.5199 58.9921 28.6675 60.5479 28.6675 62.4612V77.5173Z" fill="#37A2A5"/>
<path d="M22.1341 77.149C22.1341 77.933 22.3263 78.5694 21.8768 78.5694C21.4299 78.5694 21.0643 77.933 21.0643 77.149C21.0643 76.3649 21.4299 75.7272 21.8768 75.7272C22.325 75.7272 22.1341 76.3649 22.1341 77.149Z" fill="#37A2A5"/>
<path d="M21.2133 77.9804C21.5535 77.9804 21.8294 77.6063 21.8294 77.1449C21.8294 76.6835 21.5535 76.3094 21.2133 76.3094C20.873 76.3094 20.5972 76.6835 20.5972 77.1449C20.5972 77.6063 20.873 77.9804 21.2133 77.9804Z" fill="#1B8796"/>
<path d="M27.2294 77.149C27.2294 76.3649 27.0384 75.7272 27.488 75.7272C27.9362 75.7272 28.3004 76.3649 28.3004 77.149C28.3004 77.933 27.9362 78.5694 27.488 78.5694C27.0398 78.5694 27.2294 77.9331 27.2294 77.149Z" fill="#37A2A5"/>
<path d="M28.1528 77.9817C28.4924 77.9817 28.7676 77.6071 28.7676 77.1449C28.7676 76.6828 28.4924 76.3081 28.1528 76.3081C27.8133 76.3081 27.5381 76.6828 27.5381 77.1449C27.5381 77.6071 27.8133 77.9817 28.1528 77.9817Z" fill="#1B8796"/>
<path d="M62.5195 69.5214H61.1654V73.5837H62.5195V69.5214Z" fill="#4E595E"/>
<path d="M63.8735 70.8755H59.8113V72.2296H63.8735V70.8755Z" fill="#4E595E"/>
</g>
<defs>
<clipPath id="clip0">
<rect width="79" height="79" fill="white"/>
</clipPath>
</defs>
</svg>
