<svg width="79" height="79" fill="none" xmlns="http://www.w3.org/2000/svg"><g clip-path="url(#doctor_svg__clip0)"><path d="M71.998 62.751H7.002V79h64.996V62.751z" fill="#F9BDA0"/><path d="M56.395 22.368c.226-.452-.823-1.336-.823-1.336L42.866 18.43l-.769 17.604 4.746 5.511M22.607 22.368c-.225-.452.824-1.336.824-1.336l12.705-2.601.768 17.604-4.746 5.511" fill="#CE3309"/><path d="M47.624 31.607H31.375V65.46h16.25V31.607z" fill="#F9BDA0"/><path d="M47.625 47.417v-15.81H31.54l8.164 22.772 7.92-6.962z" fill="#EAA78C"/><path d="M52.188 17.285c0 12.227-6.2 23.293-12.685 23.293-6.486 0-12.688-11.066-12.688-23.293 0-12.227 6.202-14.266 12.688-14.266 6.486 0 12.685 2.039 12.685 14.266z" fill="#FCCCB9"/><path d="M32.007 48.461L5.57 56.6 6.194 79l32.717-7.682-6.904-22.857zM39.503 3.019c6.486 0 12.685 2.039 12.685 14.266s-6.2 23.293-12.685 23.293" fill="#F9BDA0"/><path d="M5.57 56.6L6.195 79l32.717-7.682" fill="#FCCCB9"/><path d="M46.996 48.461L73.431 56.6 72.807 79l-32.72-7.682 6.91-22.857z" fill="#F9BDA0"/><path d="M73.43 56.6L72.807 79l-32.72-7.682" fill="#EAA78C"/><path d="M71.998 62.751H7.002V79h64.996V62.751z" fill="#6B767C"/><path d="M71.998 65.46H7.002V79h64.996V65.46z" fill="#071519"/><path d="M38.487 79l-8.16-30.459-24.85 7.712L6.194 79h32.293z" fill="#E2F5F7"/><path d="M38.487 79l-8.16-30.459-24.85 7.712L8.902 79h29.585z" fill="#CEEEF2"/><path d="M40.513 79l8.16-30.459 24.85 7.712L72.806 79H40.513zM38.487 79l-8.16-30.459-24.85 7.712L14.318 79h24.17z" fill="#C3E4EA"/><path d="M65.344 75.46c0 .19-.353.344-.79.344h-9.253c-.436 0-.79-.154-.79-.345 0-.19.354-.345.79-.345h9.254c.436 0 .79.154.79.345z" fill="#F8FFFF"/><path d="M48.678 48.591l6.733 12.146-6.687 4.022 1.185 7.798L43.224 79H41.53l7.147-30.409zM30.322 48.591L23.59 60.737l6.685 4.022-1.185 7.798L35.776 79h1.693L30.322 48.59z" fill="#E2F5F7"/><path d="M30.913 41.658c-3.582 0-6.308 2.914-6.308 6.494v11.143c.44.152.914.316 1.354.526V48.151c0-2.93 2.159-5.313 5.088-5.313.323 0 .365-.264.365-.59-.001-.327-.174-.59-.5-.59zM53.715 65.666c.33 0 .68-.264.68-.591V48.15c0-3.58-2.795-6.494-6.376-6.494-.325 0-.534.264-.534.592 0 .325.092.59.417.59 2.929 0 5.139 2.383 5.139 5.314v16.924c0 .325.352.59.674.59z" fill="#4E595E"/><path d="M54.073 67.515a1.378 1.378 0 100-2.757 1.378 1.378 0 000 2.757z" fill="#7CB1B5"/><path d="M58.4 70.35a4.333 4.333 0 01-4.326 4.332 4.33 4.33 0 110-8.66A4.333 4.333 0 0158.4 70.35z" fill="#37A2A5"/><path d="M51.013 67.29a4.332 4.332 0 016.121 0 4.334 4.334 0 01.003 6.122" fill="#1B8796"/><path d="M54.074 72.664a2.313 2.313 0 100-4.625 2.313 2.313 0 000 4.625z" fill="#37A2A5"/><path d="M52.44 71.984a2.311 2.311 0 113.271-3.268" fill="#1B8796"/><path d="M28.668 77.517l-1.44-15.056c0-1.262-1.156-2.287-2.416-2.287-1.264 0-2.688 1.027-2.688 2.287l-1.581 15.056V62.461c0-1.912 2.149-3.469 4.062-3.469 1.915 0 4.063 1.556 4.063 3.47v15.055z" fill="#37A2A5"/><path d="M22.134 77.15c0 .783.192 1.42-.257 1.42-.447 0-.813-.637-.813-1.42 0-.785.366-1.423.813-1.423.448 0 .257.638.257 1.422z" fill="#37A2A5"/><path d="M21.213 77.98c.34 0 .616-.374.616-.835 0-.462-.276-.836-.616-.836-.34 0-.616.374-.616.836 0 .461.276.835.616.835z" fill="#1B8796"/><path d="M27.23 77.15c0-.785-.192-1.423.258-1.423.448 0 .812.638.812 1.422 0 .784-.364 1.42-.812 1.42-.448 0-.259-.636-.259-1.42z" fill="#37A2A5"/><path d="M28.153 77.982c.34 0 .615-.375.615-.837 0-.462-.276-.837-.615-.837-.34 0-.615.375-.615.837 0 .462.275.837.615.837z" fill="#1B8796"/><path d="M62.52 69.522h-1.355v4.062h1.354V69.52z" fill="#4E595E"/><path d="M63.873 70.876h-4.062v1.354h4.063v-1.355z" fill="#4E595E"/><path d="M36.63.661s3.936 19.481 19.856 21.453c0 0 .518-11.965-3.893-17.18C48.178-.28 41.347.363 41.347.363L36.629.66z" fill="#E5370E"/><path d="M45.489.67s3.21 15.264-22.964 22.351c0 0-1.994-12.86 3.213-18.37C30.945-.858 40.281.058 40.281.058l5.208.614z" fill="#F95130"/><path d="M40.282.057l5.207.614s3.21 15.263-22.964 22.35" fill="#E5370E"/></g><defs><clipPath id="doctor_svg__clip0"><path d="M0 0h79v79H0V0z" fill="#fff"/></clipPath></defs></svg>