<svg width="43" height="43" viewBox="0 0 43 43" fill="none" xmlns="http://www.w3.org/2000/svg">
<g clip-path="url(#clip0)">
<path d="M4.9884 0.0200806L4.81293 42.0197L9.1104 42.0377L9.1165 40.5771C9.11956 39.8454 9.71736 39.2526 10.4491 39.2557C11.1808 39.2587 11.7736 39.8565 11.7706 40.5882L11.7645 42.0488L16.1521 42.0671L16.1582 40.6065C16.1612 39.8748 16.759 39.282 17.4907 39.2851C18.2223 39.2882 18.8152 39.8859 18.8121 40.6176L18.806 42.0782L23.1937 42.0965L23.1998 40.636C23.2028 39.9043 23.8006 39.3115 24.5323 39.3145C25.2639 39.3176 25.8567 39.9153 25.8537 40.6471L25.8476 42.1076L30.2353 42.1259L30.2414 40.6654C30.2444 39.9337 30.8422 39.3409 31.5738 39.3439C32.3056 39.347 32.8984 39.9448 32.8953 40.6765L32.8892 42.137L37.1867 42.155L37.3622 0.155338L33.0648 0.137384L33.0587 1.59793C33.0556 2.32964 32.4579 2.92243 31.7261 2.91937C30.9945 2.91632 30.4017 2.31855 30.4047 1.58684L30.4108 0.126296L26.0231 0.107964L26.017 1.56851C26.014 2.30022 25.4162 2.89301 24.6845 2.88995C23.9529 2.8869 23.36 2.28913 23.3631 1.55742L23.3692 0.0968756L18.9815 0.0785439L18.9754 1.53909C18.9724 2.2708 18.3746 2.86359 17.6429 2.86053C16.9112 2.85748 16.3184 2.25971 16.3215 1.528L16.3276 0.0674556L11.9399 0.0491241L11.9338 1.50967C11.9308 2.24138 11.333 2.83417 10.6013 2.83111C9.86955 2.82806 9.27671 2.23029 9.27977 1.49858L9.28587 0.0380354L4.9884 0.0200806ZM10.5891 5.75221C12.0525 5.75832 13.3487 5.01974 14.1177 3.89346C14.8774 5.02613 16.1673 5.77551 17.6307 5.78163C19.0942 5.78774 20.3904 5.04934 21.1594 3.92288C21.919 5.05573 23.2089 5.80493 24.6724 5.81105C26.136 5.81716 27.4321 5.07872 28.2011 3.9523C28.9606 5.08515 30.2505 5.83435 31.7141 5.84047C32.7402 5.84476 33.6841 5.48302 34.4216 4.87823L34.2857 37.4077C33.5533 36.7968 32.6124 36.4271 31.5864 36.4228C30.1228 36.4167 28.8266 37.1552 28.0577 38.2816C27.2981 37.1487 26.0083 36.3995 24.5446 36.3934C23.0811 36.3873 21.7849 37.1257 21.016 38.2522C20.2564 37.1193 18.9665 36.3701 17.5029 36.364C16.0395 36.3579 14.7433 37.0965 13.9743 38.2228C13.2147 37.09 11.9247 36.3407 10.4612 36.3346C9.43512 36.3303 8.49129 36.692 7.75376 37.2968L7.88967 4.76738C8.62217 5.37831 9.56294 5.74792 10.5891 5.75221Z" fill="#055D88"/>
<path d="M29.7678 9.34081L12.8981 9.27032L12.8859 12.1914L29.7556 12.2619L29.7678 9.34081Z" fill="#055D88"/>
<path d="M29.7424 15.4074L12.8727 15.3369L12.8605 18.258L29.7302 18.3285L29.7424 15.4074Z" fill="#055D88"/>
<path d="M29.717 21.4739L12.8473 21.4034L12.8351 24.3245L29.7048 24.395L29.717 21.4739Z" fill="#055D88"/>
<path d="M29.6804 30.2373L18.8954 30.1922L18.8832 33.1133L29.6682 33.1584L29.6804 30.2373Z" fill="#055D88"/>
</g>
<defs>
<clipPath id="clip0">
<rect x="0.175537" width="42" height="42" transform="rotate(0.239381 0.175537 0)" fill="white"/>
</clipPath>
</defs>
</svg>
