<svg width="28" height="28" fill="none" xmlns="http://www.w3.org/2000/svg"><path fill-rule="evenodd" clip-rule="evenodd" d="M14 2.167C7.465 2.167 2.167 7.465 2.167 14S7.465 25.833 14 25.833 25.833 20.535 25.833 14 20.535 2.167 14 2.167zM.167 14C.167 6.36 6.36.167 14 .167 21.64.167 27.833 6.36 27.833 14c0 7.64-6.193 13.833-13.833 13.833C6.36 27.833.167 21.64.167 14z" fill="#fff"/><path fill-rule="evenodd" clip-rule="evenodd" d="M14 11.834a1 1 0 011 1V21a1 1 0 01-2 0v-8.166a1 1 0 011-1zM14 7.155a1 1 0 011 1v.011a1 1 0 11-2 0v-.011a1 1 0 011-1z" fill="#fff"/></svg>