<svg width="53" height="53" fill="none" xmlns="http://www.w3.org/2000/svg"><path d="M44.358 49.619L30.487 38.237h-19.08C5.116 38.237 0 33.007 0 26.582V15.036C0 8.61 5.118 3.381 11.406 3.381h30.188C47.882 3.381 53 8.611 53 15.036v11.546c0 5.407-3.625 10.026-8.642 11.304v11.733zM11.406 6.694c-4.462 0-8.094 3.743-8.094 8.343v11.545c0 4.6 3.632 8.342 8.094 8.342h20.265l9.375 7.691V35.04l1.462-.173c4.093-.482 7.18-4.043 7.18-8.284V15.036c0-4.6-3.632-8.342-8.094-8.342H11.406z" fill="#055D88"/><path d="M36.742 22.77c.59.36 1.815.782 2.764.782.97 0 1.372-.338 1.372-.865 0-.53-.318-.782-1.52-1.183-2.131-.718-2.954-1.877-2.933-3.102 0-1.92 1.646-3.375 4.199-3.375 1.203 0 2.279.273 2.913.59l-.57 2.216c-.464-.254-1.35-.592-2.237-.592-.781 0-1.224.317-1.224.844 0 .485.4.74 1.667 1.182 1.962.675 2.786 1.668 2.807 3.187 0 1.92-1.519 3.333-4.474 3.333-1.35 0-2.554-.294-3.334-.716l.57-2.3zm-18.124-4.22c0-1.287-.042-2.385-.084-3.292h2.701l.148 1.393h.063c.443-.654 1.35-1.624 3.123-1.624 1.33 0 2.384.674 2.827 1.75h.042c.38-.528.845-.95 1.33-1.244.57-.338 1.203-.506 1.963-.506 1.983 0 3.483 1.392 3.483 4.472v6.078H31.09v-5.612c0-1.5-.486-2.365-1.52-2.365-.738 0-1.266.506-1.477 1.12a2.68 2.68 0 00-.126.822v6.035h-3.123v-5.782c0-1.309-.464-2.195-1.478-2.195-.822 0-1.309.634-1.498 1.161-.105.253-.126.549-.126.803v6.013h-3.123V18.55zM9.44 22.77c.591.36 1.816.782 2.765.782.97 0 1.372-.338 1.372-.865 0-.53-.317-.782-1.519-1.183-2.132-.718-2.955-1.877-2.934-3.102 0-1.92 1.646-3.375 4.199-3.375 1.203 0 2.28.273 2.913.59l-.57 2.216c-.464-.254-1.35-.592-2.236-.592-.782 0-1.225.317-1.225.844 0 .485.401.74 1.668 1.182 1.962.675 2.785 1.668 2.806 3.187 0 1.92-1.519 3.333-4.474 3.333-1.35 0-2.554-.294-3.333-.716l.569-2.3z" fill="#055D88"/></svg>