<svg width="31" height="31" viewBox="0 0 31 31" fill="none" xmlns="http://www.w3.org/2000/svg">
<path d="M25.9453 29.0222L17.832 22.3648H6.67152C2.99327 22.3648 0 19.3063 0 15.5476V8.79476C0 5.03616 2.99327 1.97754 6.67152 1.97754H24.3285C28.0067 1.97754 31 5.03616 31 8.79476V15.5476C31 18.7103 28.8799 21.4121 25.9453 22.1596V29.0222ZM6.67152 3.9151C4.06138 3.9151 1.9375 6.10427 1.9375 8.79482V15.5477C1.9375 18.2382 4.06138 20.4274 6.67152 20.4274H18.5245L24.0078 24.9258V20.4945L24.863 20.3933C27.2575 20.1114 29.0625 18.0282 29.0625 15.5477V8.79476C29.0625 6.10421 26.9386 3.91504 24.3285 3.91504H6.67152V3.9151Z" fill="white"/>
<path d="M21.4903 13.3187C21.8356 13.5287 22.5517 13.7756 23.1071 13.7756C23.6747 13.7756 23.9093 13.5779 23.9093 13.2695C23.9093 12.9601 23.7239 12.8125 23.021 12.578C21.7741 12.1579 21.2926 11.4796 21.3048 10.7634C21.3048 9.64049 22.2679 8.78906 23.7608 8.78906C24.4646 8.78906 25.0938 8.94893 25.4646 9.13436L25.1316 10.4304C24.86 10.2819 24.3416 10.0842 23.8232 10.0842C23.3662 10.0842 23.107 10.2696 23.107 10.578C23.107 10.8618 23.3416 11.0104 24.0824 11.2696C25.2299 11.6641 25.7114 12.2449 25.7238 13.1333C25.7238 14.2563 24.8355 15.0831 23.107 15.0831C22.3171 15.0831 21.6132 14.9109 21.1572 14.664L21.4903 13.3187Z" fill="white"/>
<path d="M10.8896 10.8496C10.8896 10.0975 10.8649 9.45506 10.8403 8.92432H12.4203L12.5064 9.73886H12.5432C12.8024 9.35668 13.3332 8.78906 14.37 8.78906C15.1477 8.78906 15.7645 9.18358 16.0237 9.81269H16.0483C16.2706 9.50428 16.5422 9.25735 16.826 9.08521C17.16 8.8875 17.5298 8.78913 17.9745 8.78913C19.1343 8.78913 20.0113 9.60367 20.0113 11.405V14.9602H18.1845V11.6773C18.1845 10.8003 17.8998 10.2942 17.2953 10.2942C16.8639 10.2942 16.5545 10.5903 16.4315 10.9489C16.3823 11.0841 16.3578 11.2819 16.3578 11.4304V14.9601H14.531V11.578C14.531 10.8126 14.2594 10.2942 13.6663 10.2942C13.1857 10.2942 12.9009 10.6651 12.7902 10.9735C12.7287 11.1211 12.7165 11.2942 12.7165 11.4427V14.9602H10.8897V10.8496H10.8896Z" fill="white"/>
<path d="M5.52193 13.3187C5.86723 13.5287 6.5834 13.7756 7.13874 13.7756C7.70636 13.7756 7.94101 13.5779 7.94101 13.2695C7.94101 12.9601 7.75558 12.8125 7.0527 12.578C5.8058 12.1579 5.32429 11.4796 5.33656 10.7634C5.33656 9.64049 6.29965 8.78906 7.79252 8.78906C8.49635 8.78906 9.12647 8.94893 9.49632 9.13436L9.16329 10.4304C8.89176 10.2819 8.37336 10.0842 7.8549 10.0842C7.39794 10.0842 7.13874 10.2696 7.13874 10.578C7.13874 10.8618 7.37333 11.0104 8.1141 11.2696C9.26167 11.6641 9.74318 12.2449 9.75552 13.1333C9.75552 14.2563 8.86715 15.0831 7.13874 15.0831C6.34881 15.0831 5.64492 14.9109 5.18896 14.664L5.52193 13.3187Z" fill="white"/>
</svg>
