<svg width="43" height="43" fill="none" xmlns="http://www.w3.org/2000/svg"><g clip-path="url(#ticket_svg__ticket_svg__clip0)" fill="#055D88"><path d="M5.813.02l-.175 42 4.297.018.006-1.46a1.328 1.328 0 012.654.01l-.006 1.46 4.388.019.006-1.46a1.328 1.328 0 012.654.011l-.006 1.46 4.387.018.006-1.46a1.328 1.328 0 012.654.011l-.006 1.46 4.388.019.006-1.46a1.328 1.328 0 012.654.01l-.006 1.461 4.297.018.176-42-4.298-.018-.006 1.46a1.329 1.329 0 01-1.332 1.322 1.328 1.328 0 01-1.322-1.332l.006-1.46-4.387-.02-.006 1.461a1.328 1.328 0 01-1.333 1.322 1.328 1.328 0 01-1.321-1.333l.006-1.46-4.388-.019L19.8 1.54a1.328 1.328 0 01-1.332 1.321 1.329 1.329 0 01-1.322-1.332l.006-1.46L12.764.05l-.006 1.46a1.328 1.328 0 01-1.332 1.322A1.328 1.328 0 0110.104 1.5l.007-1.461L5.813.02zm5.6 5.732a4.248 4.248 0 003.53-1.859 4.247 4.247 0 007.042.03 4.247 4.247 0 007.04.03 4.247 4.247 0 006.221.925l-.136 32.53a4.247 4.247 0 00-6.228.874 4.247 4.247 0 00-7.042-.03 4.247 4.247 0 00-7.041-.03 4.248 4.248 0 00-3.513-1.888 4.229 4.229 0 00-2.708.963l.136-32.53c.733.611 1.673.98 2.7.985z"/><path d="M30.505 30.237l-10.785-.045-.012 2.921 10.785.045.012-2.92zm.037-8.763l-16.87-.07-.012 2.92 16.87.07.012-2.92zm.025-6.067l-16.87-.07-.012 2.921 16.87.07.012-2.92zm.025-6.067l-16.87-.07-.011 2.921 16.87.07.011-2.92z"/></g><defs><clipPath id="ticket_svg__ticket_svg__clip0"><path d="M1 0l42 .175-.176 42-42-.175L1 0z" fill="#fff"/></clipPath></defs></svg>