<svg width="30" height="30" viewBox="0 0 30 30" fill="none" xmlns="http://www.w3.org/2000/svg">
<g clip-path="url(#clip0)">
<path d="M15.0004 0C6.72957 0 0.000976562 6.72896 0.000976562 14.9998C0.000976562 23.271 6.72957 30 15.0004 30C23.2713 30 30.0003 23.271 30.0003 14.9998C30.0003 6.72896 23.2709 0 15.0004 0ZM15.0004 27.8314C7.92558 27.8314 2.16926 22.075 2.16926 14.9998C2.16926 7.9246 7.92522 2.16865 15.0004 2.16865C22.0756 2.16865 27.8316 7.9246 27.8316 14.9998C27.8316 22.075 22.0756 27.8314 15.0004 27.8314Z" fill="white"/>
<path d="M19.34 16.3806C19.3343 16.3806 19.3292 16.3806 19.3234 16.3806L16.0842 16.429V7.95176C16.0842 7.35285 15.5988 6.86743 14.9999 6.86743C14.4009 6.86743 13.9155 7.35285 13.9155 7.95176V17.53C13.9155 17.5321 13.9162 17.5343 13.9162 17.5365C13.9162 17.5401 13.9155 17.5433 13.9155 17.5462C13.9163 17.5903 13.9246 17.6319 13.9303 17.6742C13.934 17.7006 13.9343 17.7277 13.9394 17.7537C13.9491 17.8003 13.9654 17.8437 13.9809 17.8874C13.9889 17.9102 13.994 17.934 14.0034 17.9557C14.0222 18.0002 14.0475 18.0407 14.0717 18.0822C14.0829 18.1007 14.0912 18.1209 14.1031 18.139C14.1306 18.1791 14.1635 18.2149 14.196 18.2514C14.2097 18.2666 14.2209 18.2839 14.2354 18.2987C14.2705 18.3334 14.3099 18.3627 14.3493 18.3927C14.3652 18.4046 14.3793 18.4191 14.3955 18.4303C14.4382 18.4592 14.4848 18.482 14.5314 18.5044C14.5477 18.512 14.5621 18.5228 14.5788 18.5297C14.633 18.5525 14.6908 18.5684 14.7494 18.5825C14.7602 18.585 14.7703 18.5901 14.7815 18.5922C14.8517 18.6063 14.9243 18.6143 14.9988 18.6143C15.0042 18.6143 15.01 18.6143 15.0154 18.6143L19.3556 18.5492C19.9541 18.5402 20.4323 18.0472 20.4236 17.4486C20.4153 16.8555 19.9314 16.3806 19.34 16.3806Z" fill="white"/>
</g>
<defs>
<clipPath id="clip0">
<rect width="30" height="30" fill="white"/>
</clipPath>
</defs>
</svg>
